<?xml version="1.0" encoding="utf-8"?>
<!-- Generator: Adobe Illustrator 21.0.2, SVG Export Plug-In . SVG Version: 6.00 Build 0)  -->
<svg version="1.1" id="Layer_1" xmlns="http://www.w3.org/2000/svg" xmlns:xlink="http://www.w3.org/1999/xlink" x="0px" y="0px"
	 viewBox="0 0 547.779 104.299" style="enable-background:new 0 0 547.779 104.299;" xml:space="preserve">
<path fill="#a9e44d" d="M98.163,2.084c-28.285,7.109-43.669,36.94-33.156,64.135c0.629,1.627,1.345,1.517,2.525,1.039
	c4.445-1.8,7.481-5.189,10.156-8.991c3.145-4.471,5.721-9.328,9.209-13.566c1.987-2.414,4.094-4.698,7.054-6.917
	c-0.181,0.923-0.157,1.299-0.319,1.56c-3.619,5.815-5.621,12.319-7.969,18.674c-2.763,7.48-5.587,14.906-13.714,18.588
	c2.085,0.463,4.026,0.541,6.004,0.048c4.695-1.169,8.427-3.957,11.926-7.096c5.4-4.846,10.077-10.393,15-15.701
	c3.062-3.301,6.197-6.517,10.267-8.918c-1.594,3.1-3.217,6.184-4.775,9.302c-4.37,8.746-8.469,17.637-13.878,25.826
	c-2.432,3.682-5.553,6.607-9.506,8.603c-10.237,5.169-21.553,2.491-29.966-7.092c-4.536-5.167-7.684-11.154-10.278-17.468
	c-1.279-3.114-2.704-6.161-5.256-8.467c-1.611-1.457-3.402-2.625-5.733-1.608c-2.309,1.008-2.765,3.059-2.783,5.263
	c-0.029,3.538,1.162,6.768,2.857,9.793c4.167,7.439,9.908,13.487,16.78,18.471c11.848,8.593,24.588,11.563,38.633,5.957
	c1.103-0.44,2.043,0.005,3.055,0.338c33.246,10.933,66.303-15.657,62.762-50.471C154.148,14.79,126.04-4.922,98.163,2.084z
	 M98.531,48.562c7.735-17.69,17.173-25.051,32.413-25.736c0.594,0.176,1.182,0.223,1.802-0.082c-0.47-0.603-1.076-0.833-1.8-0.809
	c-20.072-5.853-39.464,1.466-52.117,19.649c-2.517,3.617-4.568,7.492-6.467,11.604c-3.403-11.784,3.799-29.532,18.92-37.909
	c17.247-9.555,40.035-4.062,49.929,12.504C123.16,26.957,110.404,36.857,98.531,48.562z M118.134,85.475
	c-5.38,1.247-10.759,1.479-16.668,0.15c6.671-7,10.217-15.388,14.221-23.504c3.235-6.559,6.527-13.085,11.265-18.74
	c3.914-4.671,8.601-8.257,14.279-10.607c1.994-0.825,2.777-0.58,3.605,1.489C153.464,55.81,140.768,80.23,118.134,85.475z
	 M222.57,43.508c1.562,0.061,2.154-0.345,2.145-2.039c-0.066-12.899-0.067-25.798,0-38.697c0.009-1.705-0.604-2.068-2.153-2.033
	c-3.974,0.09-7.955,0.143-11.924-0.02c-1.827-0.075-2.65,0.513-3.21,2.225c-1.753,5.354-3.67,10.655-5.746,16.618
	c-2.094-6.054-4.038-11.521-5.851-17.032c-0.431-1.312-0.998-1.82-2.405-1.792c-4.327,0.087-8.659,0.087-12.986,0.001
	c-1.425-0.028-1.775,0.458-1.77,1.815c0.043,13.076,0.049,26.152-0.006,39.227c-0.006,1.481,0.55,1.762,1.86,1.723
	c2.736-0.082,5.489-0.181,8.212,0.025c2.192,0.165,2.635-0.66,2.596-2.678c-0.122-6.23-0.045-12.463-0.045-18.695
	c0.734,0.586,0.997,1.274,1.24,1.967c1.922,5.487,3.878,10.963,5.738,16.471c0.589,1.745,1.042,2.98,3.459,3.013
	c2.536,0.035,2.821-1.472,3.384-3.102c0.633-1.832,1.244-3.671,1.889-5.499c1.563-4.43,3.141-8.855,4.712-13.282
	c0.416,6.523,0.472,12.95,0.378,19.375c-0.025,1.746,0.29,2.551,2.269,2.424C217.085,43.347,219.835,43.401,222.57,43.508z
	 M300.089,87.302c0.007-1.092-0.055-1.997-1.505-1.759c-1.631,0.267-1.837-0.603-1.817-1.973c0.067-4.59,0.026-9.182,0.025-13.773
	c0-4.679-0.052-9.36,0.028-14.038c0.027-1.595-0.227-2.349-2.125-2.326c-8.74,0.105-17.482,0.086-26.222,0.009
	c-1.525-0.013-1.982,0.56-2.084,1.933c-0.202,2.727-0.452,5.453-0.778,8.168c-0.694,5.775-0.752,11.628-2.061,17.328
	c-0.534,2.324-1.473,4.434-4.05,5.071c-1.235,0.306-1.176,1.084-1.175,1.981c0.005,3.179-0.046,6.358,0.019,9.535
	c0.042,2.097-0.897,4.793,0.379,6.129c1.294,1.354,4.01,0.35,6.099,0.416c1.927,0.061,4.404,0.645,5.642-0.304
	c1.329-1.018,0.495-3.63,0.405-5.519c-0.09-1.887,0.693-2.166,2.291-2.097c2.556,0.111,5.121-0.017,7.68,0.044
	c2.098,0.05,4.741-0.865,6.141,0.369c1.317,1.16,0.421,3.829,0.39,5.824c-0.022,1.466,0.525,1.764,1.844,1.73
	c3.088-0.08,6.181-0.084,9.269,0.002c1.295,0.036,1.634-0.403,1.618-1.653C300.038,97.367,300.058,92.334,300.089,87.302z
	 M282.288,85.572c-2.813-0.113-5.633-0.032-9.019-0.032c4.313-6.015,3.897-12.709,4.439-19.113c0.328-3.872,2.879-2.01,4.561-2.38
	c2.121-0.466,1.901,1.059,1.896,2.411c-0.021,5.727-0.055,11.456,0.023,17.182C284.207,85.113,283.81,85.633,282.288,85.572z
	 M231.517,42.927c1.545,1.709,5.177,0.227,7.857,0.594c2.708,0.37,4.056-0.777,5.27-3.103c2.987-5.722,6.278-11.286,9.812-17.563
	c0.087,1.099,0.134,1.414,0.134,1.728c0.005,5.654,0.049,11.309-0.026,16.962c-0.02,1.49,0.407,2.029,1.936,1.963
	c2.557-0.11,5.134-0.176,7.682,0.013c2.315,0.172,3.127-0.405,3.091-2.949c-0.16-11.217-0.069-22.439-0.069-33.658
	c0-6.144-0.031-5.767-6.133-6.262c-4.985-0.404-7.886,1.09-9.867,5.777c-1.926,4.555-4.724,8.742-7.118,13.054
	c-0.755-0.289-0.562-0.704-0.562-1.009c-0.014-5.212-0.065-10.426,0.023-15.636c0.027-1.597-0.409-2.185-2.071-2.103
	c-2.644,0.131-5.307,0.162-7.947-0.007c-1.958-0.126-2.549,0.422-2.528,2.46c0.109,10.689,0.038,21.379,0.06,32.069
	C231.066,37.893,230.175,41.443,231.517,42.927z M206.318,74.041c3.323-1.27,5.451-3.326,6.333-6.56
	c1.901-6.972-2.461-13.443-9.791-13.801c-7.568-0.37-15.166-0.118-22.749-0.23c-1.816-0.027-1.407,1.13-1.408,2.105
	c-0.011,12.79,0.02,25.58-0.041,38.369c-0.008,1.632,0.287,2.267,2.116,2.235c7.054-0.121,14.113-0.002,21.168-0.075
	c6.248-0.065,10.475-3.315,11.612-8.748C214.794,81.434,212.308,76.759,206.318,74.041z M195.112,63.748
	c0.792,0,1.586-0.028,2.376,0.006c1.779,0.075,2.827,1.027,2.84,2.797c0.014,1.781-1.071,2.752-2.813,2.848
	c-1.58,0.087-3.17-0.02-4.751,0.055c-1.187,0.057-1.434-0.487-1.507-1.564C190.973,63.734,190.933,63.737,195.112,63.748z
	 M198.488,85.748c-2.013,0.194-4.054,0.093-6.083,0.137c-0.786,0.017-1.128-0.356-1.114-1.118c0.007-0.353-0.002-0.706-0.009-1.059
	c-0.077-4.043-0.077-4.043,3.985-3.983c1.059,0,2.139-0.136,3.171,0.031c1.693,0.273,2.607,1.319,2.577,3.126
	C200.988,84.59,200.062,85.597,198.488,85.748z M273.571,21.907c0,6.536,0.035,13.071-0.028,19.606
	c-0.013,1.412,0.246,2.071,1.858,2.001c2.909-0.127,5.832-0.135,8.74,0.002c1.719,0.081,2.074-0.591,2.041-2.148
	c-0.089-4.237,0.022-8.479-0.059-12.717c-0.028-1.469,0.363-2.058,1.923-1.969c2.201,0.126,4.423,0.155,6.619-0.005
	c2.008-0.145,2.795,0.372,2.693,2.574c-0.191,4.142-0.009,8.3-0.08,12.45c-0.024,1.385,0.428,1.846,1.816,1.803
	c2.912-0.09,5.831-0.101,8.742,0.003c1.503,0.054,1.961-0.425,1.955-1.937c-0.052-12.983-0.055-25.966,0.002-38.948
	c0.007-1.584-0.579-1.928-2.012-1.881c-2.823,0.092-5.657,0.13-8.476-0.011c-1.716-0.086-2.074,0.578-2.034,2.137
	c0.096,3.795-0.037,7.596,0.064,11.391c0.041,1.539-0.48,2-1.966,1.936c-2.38-0.102-4.773-0.117-7.151,0.005
	c-1.576,0.081-2.172-0.318-2.11-2.023c0.135-3.704-0.064-7.421,0.085-11.125c0.077-1.926-0.612-2.409-2.413-2.319
	c-2.731,0.137-5.48,0.143-8.21-0.003c-1.696-0.091-2.057,0.519-2.036,2.101C273.62,9.188,273.571,15.548,273.571,21.907z
	 M465.516,55.295c0.004-1.283-0.219-1.905-1.706-1.849c-2.998,0.112-6.006,0.108-9.005,0.002c-1.56-0.055-1.947,0.539-1.915,2.001
	c0.084,3.884-0.014,7.771,0.051,11.655c0.023,1.34-0.349,1.907-1.783,1.843c-2.291-0.102-4.599-0.151-6.884,0.011
	c-1.928,0.137-2.656-0.374-2.558-2.447c0.175-3.7-0.016-7.417,0.081-11.123c0.039-1.492-0.395-2.002-1.92-1.941
	c-2.821,0.113-5.657,0.152-8.473-0.011c-1.853-0.107-2.151,0.646-2.131,2.269c0.079,6.357,0.032,12.715,0.032,19.073
	c0,6.446,0.06,12.893-0.041,19.338c-0.026,1.668,0.464,2.109,2.077,2.034c2.82-0.132,5.656-0.152,8.473,0.006
	c1.754,0.098,2.016-0.605,1.983-2.126c-0.091-4.237,0.011-8.477-0.056-12.715c-0.021-1.337,0.337-1.912,1.77-1.86
	c2.558,0.091,5.124,0.103,7.68-0.004c1.449-0.061,1.774,0.5,1.752,1.835c-0.07,4.237,0.034,8.478-0.057,12.715
	c-0.033,1.528,0.242,2.243,1.996,2.154c2.907-0.147,5.829-0.121,8.739-0.007c1.506,0.059,1.911-0.417,1.904-1.909
	C465.47,81.257,465.48,68.276,465.516,55.295z M256.616,70.721c-1.109-10.172-8.18-17.077-18.386-17.965
	c-9.669-0.841-17.895,4.826-20.65,14.228c-0.624,2.131-0.879,4.324-1.031,6.526c-1.102,15.985,11.581,26.821,26.382,22.556
	c8.835-2.546,14.347-11.197,13.964-21.911C256.805,73.009,256.74,71.862,256.616,70.721z M242.362,82.72
	c-1.302,2.228-3.155,3.506-5.815,3.448c-2.56-0.055-4.413-1.329-5.457-3.553c-2.42-5.156-2.537-10.474,0.004-15.556
	c2.449-4.898,8.48-4.868,11.269-0.156c1.14,1.925,1.75,4.679,1.753,7.909C244.064,77.566,243.794,80.27,242.362,82.72z
	 M323.298,52.726c-9.687-0.583-17.457,4.985-20.213,14.45c-0.723,2.483-1.009,5.009-0.966,7.582
	c-0.055,2.217,0.159,4.405,0.643,6.572c2.102,9.421,9.331,15.346,19.083,15.628c9.235,0.267,16.855-5.211,19.462-14.102
	c1.286-4.385,1.432-8.847,0.66-13.37C340.306,59.754,333.187,53.321,323.298,52.726z M327.937,82.629
	c-1.256,2.232-3.093,3.568-5.77,3.537c-2.678-0.031-4.576-1.356-5.645-3.691c-2.331-5.088-2.327-10.259,0.011-15.347
	c1.081-2.352,3.051-3.651,5.677-3.667c2.628-0.017,4.522,1.324,5.762,3.581c1.309,2.381,1.626,5.004,1.754,7.69
	C329.622,77.462,329.318,80.176,327.937,82.629z M391.541,42.624c-4.108-6.582-8.138-13.215-12.398-19.697
	c-1.193-1.815-1.03-2.97,0.169-4.621c3.059-4.208,5.917-8.562,8.851-12.86c0.974-1.426,1.935-2.862,3.161-4.677
	c-4.466,0-8.408,0.081-12.343-0.039c-1.642-0.05-2.511,0.525-3.286,1.952c-2.543,4.683-5.243,9.281-7.882,13.911
	c-0.427-4.742-0.467-9.378-0.401-14.013c0.019-1.335-0.313-1.889-1.758-1.841c-2.999,0.099-6.007,0.108-9.005-0.002
	c-1.566-0.058-1.908,0.54-1.903,1.992c0.048,12.981,0.044,25.963,0.003,38.944c-0.004,1.36,0.368,1.886,1.789,1.832
	c2.557-0.097,5.148-0.258,7.675,0.034c2.842,0.329,3.328-0.807,3.241-3.352c-0.129-3.781-0.969-7.838,2.58-10.993
	c2.115,4.128,4.226,8.276,6.367,12.407c0.422,0.815,0.596,1.889,1.913,1.881c4.442-0.026,8.884-0.01,13.381-0.01
	C391.605,42.954,391.624,42.757,391.541,42.624z M547.777,93.748c-0.158-6.267-0.057-12.541-0.057-18.812
	c0-6.448-0.037-12.896,0.028-19.343c0.015-1.482-0.173-2.18-1.961-2.16c-8.743,0.101-17.489,0.084-26.232,0.012
	c-1.622-0.013-2.043,0.531-2.176,2.094c-0.621,7.299-1.321,14.594-2.145,21.873c-0.315,2.781-0.367,6.302-2.952,7.621
	c-3.166,1.615-2.206,3.326-1.442,5.48c0.441,1.244,0.925,2.498,1.147,3.789c0.282,1.642,1.036,1.883,2.574,1.572
	c7.448-1.507,10.839-6.67,12.401-13.516c1.203-5.272,1.421-10.672,1.815-16.032c0.278-3.787,2.945-1.968,4.647-2.264
	c2.317-0.403,1.666,1.466,1.671,2.62c0.035,9.009,0.089,18.02-0.033,27.027c-0.028,2.046,0.572,2.578,2.523,2.447
	c2.55-0.171,5.128-0.166,7.679-0.001C547.17,96.277,547.829,95.824,547.777,93.748z M370.995,71.444
	c2.93-4.081,5.731-8.256,8.511-12.443c1.14-1.717,2.57-3.276,3.418-5.523c-4.204,0-8.161,0.067-12.114-0.034
	c-1.515-0.038-2.355,0.449-3.089,1.801c-2.542,4.682-5.234,9.283-7.869,13.915c-0.154-0.034-0.309-0.068-0.463-0.102
	c0-4.538-0.05-9.078,0.029-13.614c0.025-1.446-0.318-2.056-1.891-1.998c-2.997,0.111-6.003,0.095-9.002,0.005
	c-1.399-0.042-1.785,0.436-1.78,1.81c0.046,13.064,0.053,26.129-0.007,39.193c-0.007,1.526,0.629,1.714,1.881,1.679
	c2.47-0.07,4.963-0.217,7.409,0.032c2.76,0.28,3.577-0.628,3.434-3.403c-0.195-3.773-0.924-7.813,2.546-10.904
	c2.15,4.211,4.305,8.444,6.476,12.667c0.383,0.745,0.574,1.623,1.785,1.608c4.449-0.057,8.9-0.023,13.736-0.023
	c-4.515-7.246-8.743-14.137-13.101-20.944C369.997,73.748,370.02,72.803,370.995,71.444z M412.202,53.45
	c-3.969,0.078-7.941,0.06-11.911,0.008c-1.125-0.015-1.766,0.278-2.118,1.442c-4.003,13.222-8.047,26.431-12.088,39.642
	c-0.318,1.04-0.244,1.621,1.115,1.595c3.616-0.071,7.235-0.047,10.853-0.007c0.862,0.01,1.223-0.341,1.498-1.115
	c0.506-1.422-0.087-3.536,1.537-4.165c1.386-0.536,3.132-0.148,4.719-0.161c1.059-0.008,2.14,0.137,3.172-0.029
	c2.421-0.389,3.532,0.52,3.757,2.987c0.09,0.986-0.15,2.572,1.896,2.504c3.961-0.13,7.929-0.038,12.218-0.038
	c-4.228-13.913-8.356-27.456-12.442-41.011C414.049,53.908,413.493,53.424,412.202,53.45z M407.764,80.163
	c-4.831,0.1-4.844,0.184-3.762-4.503c0.634-2.746,1.317-5.482,1.993-8.218c0.06-0.243,0.235-0.457,0.432-0.827
	c0.934,3.98,1.819,7.821,2.743,11.652C409.473,79.52,409.395,80.129,407.764,80.163z M496.642,55.005
	c-0.376-1.25-1.068-1.572-2.292-1.551c-3.792,0.067-7.588,0.107-11.377-0.015c-1.626-0.052-2.267,0.507-2.722,2.052
	c-2.582,8.776-5.286,17.516-7.954,26.266c-1.432,4.696-2.874,9.389-4.394,14.355c3.643,0,6.994-0.185,10.313,0.059
	c2.597,0.191,3.994-0.576,4.06-3.257c0.044-1.774,0.874-2.428,2.667-2.264c1.749,0.16,3.525,0.035,5.289,0.035
	c3.923,0,3.979-0.013,4.877,3.787c0.264,1.116,0.584,1.683,1.848,1.663c3.959-0.066,7.92-0.024,11.858-0.024
	c0.041-0.356,0.12-0.548,0.073-0.702C504.805,81.942,500.701,68.48,496.642,55.005z M490.115,80.156
	c-4.997,0.21-5.005,0.274-3.893-4.467c0.703-2.996,1.446-5.983,2.333-9.642c1.082,4.654,1.967,8.515,2.884,12.37
	C491.719,79.591,491.546,80.096,490.115,80.156z M349.476,30.904c-2.246-0.77-4.464-1.652-6.615-2.656
	c-1.511-0.705-2.132-0.547-2.881,1.14c-2.125,4.787-7.245,5.564-10.416,1.776c-3.401-4.063-3.416-13.914-0.027-17.984
	c2.609-3.133,6.871-3.177,9.458-0.24c0.894,1.015,0.766,3.115,2.316,3.109c1.392-0.005,2.781-0.994,4.17-1.551
	c1.307-0.524,2.579-1.178,3.929-1.543c1.564-0.423,1.588-1.123,0.995-2.445c-4.086-9.1-13.604-12.79-23.596-9.085
	c-7.959,2.951-12.583,10.574-12.577,21.893c-0.043,3.151,0.71,7.294,2.855,11.068c4.22,7.425,10.881,10.259,19.12,9.714
	c6.994-0.463,11.394-4.552,14.215-10.696C351.012,32.117,350.965,31.415,349.476,30.904z M26.687,84.547
	c-5.466-6.295-9.92-13.228-13.151-20.942c-1.432-3.419-3.026-6.799-6.301-8.926c-3.43-2.228-6.804-0.54-7.174,3.551
	c-0.338,3.742,0.743,7.178,2.54,10.366C8.385,78.854,16.407,86.801,27.143,91.83c3.83,1.794,7.788,3.263,12.032,3.782
	c0.621,0.381,1.24,0.774,2.075,0.059c-0.562-0.205-1.026-0.374-1.491-0.544C34.632,92.552,30.415,88.84,26.687,84.547z
	 M44.381,85.859c-5.928-6.506-10.736-13.739-14.163-21.875c-1.407-3.339-2.937-6.643-5.925-8.934
	c-1.526-1.171-3.19-1.914-5.149-0.97c-1.914,0.923-2.518,2.603-2.63,4.553c-0.221,3.844,1.009,7.339,2.9,10.564
	c5.812,9.907,13.668,17.696,24.161,22.605c3.835,1.794,7.796,3.272,12.044,3.799c0.625,0.372,1.247,0.775,2.095,0.063
	c-0.57-0.209-1.042-0.382-1.514-0.555C51.663,92.791,47.794,89.605,44.381,85.859z"/>
</svg>
