<?xml version="1.0" encoding="utf-8"?>
<!-- Generator: Adobe Illustrator 21.0.2, SVG Export Plug-In . SVG Version: 6.00 Build 0)  -->
<svg version="1.1" id="Layer_1" xmlns="http://www.w3.org/2000/svg" xmlns:xlink="http://www.w3.org/1999/xlink" x="0px" y="0px"
	 viewBox="0 0 363.11 294.882" style="enable-background:new 0 0 363.11 294.882;" xml:space="preserve">
<path fill="#ffffff" d="M99.885,251.187c-10.257-0.06-17.022,7.226-17.112,18.43c-0.091,11.318,6.418,18.699,16.629,18.858
	c10.477,0.163,17.51-7.319,17.503-18.623C116.899,258.82,109.992,251.246,99.885,251.187z M104.783,276.061
	c-0.986,2.071-2.603,3.364-5.072,3.331c-2.466-0.033-4.015-1.342-4.967-3.462c-1.486-3.308-1.443-6.763-0.681-10.21
	c0.654-2.958,2.194-5.343,5.534-5.441c3.347-0.098,5,2.179,5.797,5.128c0.385,1.422,0.545,2.906,0.807,4.361
	C106.202,272,105.714,274.106,104.783,276.061z M76.803,270.737c-1.667-1.195-1.948-1.61-0.161-3.045
	c3.18-2.555,3.877-6.065,2.485-9.882c-1.418-3.887-4.438-5.718-8.425-5.83c-5.476-0.154-10.964,0.043-16.435-0.191
	c-2.872-0.123-3.683,0.861-3.614,3.659c0.175,7.137,0.058,14.281,0.057,21.422c0,11.136,0,11.136,11.029,11.043
	c3.154,0,6.325,0.203,9.459-0.05c4.088-0.331,7.472-2.178,8.618-6.369C80.92,277.454,80.573,273.439,76.803,270.737z M64.78,260.358
	c1.874,0.003,4.122-0.021,4.127,2.449c0.006,2.97-2.581,2.36-4.492,2.459c-1.629-0.026-3.336,0.396-3.33-2.334
	C61.091,259.976,62.965,260.355,64.78,260.358z M66.023,279.196c-2.945-0.037-5.014,0.601-4.931-2.707
	c0.076-3.005,1.951-2.455,3.651-2.437c2.037,0.021,4.763-0.576,4.674,2.678C69.341,279.523,66.929,279.221,66.023,279.196z
	 M278.604,232.218c1.983,3.706,3.158,8.287,6.104,10.74c2.968,2.471,7.678,1.005,12.183,0.56
	c-3.588-5.766-6.697-11.07-10.139-16.149c-1.466-2.163-1.35-3.619,0.153-5.655c3.182-4.311,6.076-8.836,9.429-13.775
	c-4.436,0-8.519-1.156-11.271,0.264c-4.411,2.276-4.912,8.299-8.901,12.664c0-3.891-0.219-6.908,0.054-9.879
	c0.366-3.991-2.391-3.428-4.496-3.071c-2.222,0.377-6.143-2.235-6.101,3.045c0.078,9.829,0.164,19.662-0.038,29.487
	c-0.106,5.157,3.516,3.184,5.885,3.411c2.389,0.229,5.164,0.821,4.778-3.43C275.985,237.601,275.345,234.37,278.604,232.218z
	 M97.936,163.067c22.549,16.784,46.93,23.068,74.086,12.308c2.06-0.816,3.817-0.164,5.75,0.497
	c13.475,4.607,27.391,6.073,41.389,3.871c49.997-7.865,82.455-50.563,77.001-100.819c-5.464-50.357-56.199-87.37-105.887-77.249
	c-56.304,11.469-87.284,67.131-67.761,121.55c1.142,3.183,2.328,3.678,5.328,2.404c8.354-3.548,14.007-9.98,19.024-17.144
	c5.916-8.447,10.795-17.603,17.388-25.587c3.644-4.413,7.526-8.592,12.529-11.686c-1.964,5.152-4.643,9.871-6.657,14.859
	c-4.475,11.087-8.457,22.372-12.942,33.455c-4.107,10.151-10.415,18.516-20.765,23.175c-0.109,0.049-0.013,0.55-0.013,1.201
	c3.393,0.415,6.79,0.513,10.223-0.288c8.896-2.073,15.982-7.272,22.615-13.168c10.36-9.208,19.262-19.83,28.685-29.944
	c6.024-6.466,12.154-12.805,20.54-18.817c-3.211,6.08-5.834,10.852-8.28,15.714c-8.438,16.775-16.202,33.91-26.293,49.806
	c-18.562,29.24-52.679,31.966-75.745,6.124c-8.876-9.944-14.96-21.529-19.995-33.742c-2.358-5.72-5.014-11.275-9.636-15.57
	c-3.024-2.811-6.396-5.028-10.779-3.296c-4.661,1.842-5.501,5.992-5.465,10.296c0.059,7.182,2.672,13.667,6.251,19.752
	C76.065,143.582,86.061,154.228,97.936,163.067z M190.32,87.036c-1.12,1.134-1.883,2.796-3.765,3.06
	c1.11-21.321,31.631-46.409,58.464-48.103h5.556c-1.19-1.277-2.196-1.868-3.569-1.716c-35.58-10.909-71.922,1.838-95.677,33.532
	c-5.896,7.866-10.646,16.401-15.324,26.743c-1.659-9.647-1.505-17.82,0.622-25.816c7.705-28.976,26.231-47.854,55.35-54.239
	c29.357-6.437,53.693,3.715,72.374,27.263c0.62,0.781,1.209,1.587,1.813,2.382c-1.178,1.838-2.986,0.754-4.496,0.91
	c-3.24,0.335-6.593-0.447-9.72,1.017c-11.841,1.073-22.509,5.519-32.607,11.492C208.527,69.958,199.123,78.128,190.32,87.036z
	 M223.544,105.67c5.768-10.908,12.085-21.425,20.872-30.247c6.543-6.569,14.149-11.474,22.735-14.978
	c2.976-1.215,4.497-0.97,5.894,2.328c17.75,41.902-9.751,91.44-54.698,98.358c-8.742,1.346-17.42,1.516-26.73-0.758
	C206.665,144.296,213.744,124.204,223.544,105.67z M75.002,178.274c-7.085-3.513-13.292-8.255-18.833-13.837
	c-12.318-12.407-22.116-26.574-29.195-42.582c-2.086-4.716-4.077-9.473-7.068-13.72c-4.701-6.676-10.287-9.395-14.854-7.232
	c-4.493,2.128-6.061,7.71-4.415,15.551c2.04,9.72,7.224,17.803,13.279,25.407c15.575,19.558,35.017,32.953,60.005,37.444
	C75.001,179.716,75.186,179.188,75.002,178.274z M104.939,179.322c1.058,0.311,1.332-0.152,1.098-1.114
	c-8.168-4.031-15.065-9.743-21.245-16.334c-11.706-12.484-21.043-26.539-27.729-42.326c-2.604-6.149-5.435-12.187-10.776-16.535
	c-2.807-2.285-5.928-3.811-9.658-2.308c-3.94,1.588-5.138,4.963-5.417,8.808c-0.383,5.277,0.739,10.404,3.11,14.983
	C49.396,153.605,72.365,172.684,104.939,179.322z M288.448,251.687c-4.536-0.144-6.36,1.124-5.627,5.72
	c0.259,1.624,0.029,3.324,0.037,4.989c0.006,1.25-0.221,2.118-1.737,2.518c-5.565,1.471-7.86-0.189-7.865-5.905
	c-0.001-1.166-0.158-2.357,0.027-3.493c0.747-4.578-2.5-3.728-4.993-3.633c-2.472,0.094-5.766-1.426-5.586,3.628
	c0.333,9.314,0.302,18.655-0.004,27.971c-0.128,3.894,1.217,4.455,4.775,4.689c4.998,0.328,6.533-1.383,5.829-6.088
	c-0.293-1.954-0.035-3.99-0.045-5.988c-0.005-1.085,0.287-1.811,1.484-2.218c5.065-1.721,8.113,0.342,8.118,5.601
	c0.002,1.832,0.133,3.675-0.024,5.493c-0.353,4.076,2.651,3.2,4.67,2.933c2.111-0.279,5.837,2.107,5.812-2.808
	c-0.025-4.996-0.006-9.992-0.004-14.988c0.001-4.496-0.287-9.017,0.087-13.482C293.742,252.584,292.244,251.808,288.448,251.687z
	 M151.104,277.478c-1.995-2.658-0.375-8.03-0.375-12.186c-0.05,0-0.099,0-0.149,0c0-3.329-0.117-6.663,0.038-9.985
	c0.117-2.5-0.597-3.588-3.328-3.515c-6.32,0.169-12.652,0.184-18.971-0.009c-2.623-0.08-3.401,0.823-3.577,3.33
	c-0.384,5.472-1.076,10.923-1.666,16.38c-0.287,2.656-0.384,5.702-2.911,7.086c-2.111,1.156-2.113,2.603-2.095,4.421
	c0.024,2.33-0.067,4.663,0.027,6.99c0.084,2.078-1.021,5.321,3.016,4.471c2.84-0.599,8.083,2.905,7.703-4.022
	c-0.051-0.934-0.223-2.281,1.154-2.321c3.821-0.112,7.649-0.09,11.471,0.022c1.316,0.038,1.387,1.26,1.309,2.26
	c-0.55,7.01,4.757,3.583,7.568,4.035c4.503,0.724,3.021-3.083,2.859-5.046C152.854,285.45,154.204,281.608,151.104,277.478z
	 M139.953,264.551c0.078,2.148,0.019,4.302,0.019,6.453c0,8.404,0,8.404-8.79,7.823c2.313-4.583,2.923-9.451,3.092-14.413
	c0.072-2.129,0.45-3.837,3.351-3.72C140.69,260.816,139.893,262.894,139.953,264.551z M252.361,260.694
	c-2.994-9.778-3.313-9.963-13.252-8.878c-1.457,0.159-2.496,0.41-2.975,2.011c-3.362,11.256-6.784,22.495-10.32,34.179
	c3.196,0,5.842-0.075,8.48,0.026c1.868,0.071,3.043-0.327,3.684-2.389c0.733-2.359,9.402-3.781,9.855-1.719
	c1.292,5.888,5.587,3.645,8.964,4.094c3.648,0.485,3.672-1.168,2.75-4.009C257.038,276.274,254.742,268.47,252.361,260.694z
	 M241.47,269.848c0.695-1.834,0.356-4.012,2.156-6.009c0.82,3.561,1.558,6.768,2.301,9.996
	C241.856,275.042,239.751,274.389,241.47,269.848z M363.041,269.949c0-4.824-0.139-9.654,0.054-14.47
	c0.109-2.729-0.608-3.801-3.542-3.699c-6.147,0.213-12.313,0.222-18.46-0.001c-3.124-0.113-3.969,1.099-4.069,4.007
	c-0.155,4.479-0.618,8.959-1.191,13.408c-0.398,3.092,0.06,6.961-2.521,8.895c-4.436,3.325-1.465,6.835,0.102,8.859
	c1.584,2.045,4.767-0.168,6.854-1.664c2.686-1.926,4.194-4.775,4.779-7.932c0.816-4.401,1.391-8.856,1.843-13.311
	c0.207-2.041,0.361-3.422,3.024-3.331c2.656,0.091,2.328,1.723,2.329,3.362c0.005,5.656,0.002,11.312,0.003,16.967
	c0,7.205,0,7.05,7.237,7.044c2.859-0.002,3.741-0.838,3.617-3.664C362.888,279.604,363.041,274.774,363.041,269.949z
	 M315.053,251.812c-1.474,0.189-3.021,0.22-4.484-0.006c-3.282-0.507-4.624,0.968-5.488,4.033
	c-2.657,9.423-5.473,18.808-8.53,28.108c-1.172,3.565-0.163,4.438,3.215,4.082c3.306-0.348,7.615,1.553,8.336-4.093
	c0.106-0.832,1.079-0.804,1.654-0.681c3.2,0.688,7.988-2.48,8.987,3.714c0.196,1.213,1.552,1.023,2.531,1.028
	c2.818,0.016,5.636,0.006,9.034,0.006c-3.344-11.006-6.713-21.563-9.692-32.229C319.713,252.542,318.213,251.407,315.053,251.812z
	 M312.526,274.249c-1.456,0.167-2.638-0.006-1.996-2.132c0.766-2.534,1.242-5.156,2.039-8.575c1.849,3.22,2.079,6.232,2.615,9.097
	C315.641,275.081,313.596,274.126,312.526,274.249z M261.013,233.484c-2.459-0.904-5.105-5.119-8.381-0.738
	c-3.084,4.124-7.664,3.336-9.599-1.515c-1.411-3.537-1.425-7.188-0.024-10.736c1.945-4.923,6.09-5.668,9.588-1.758
	c0.732,0.818,0.964,2.299,2.569,1.587c2.245-0.996,5.568-1.486,6.424-3.196c1.055-2.106-1.53-4.388-3.24-6.175
	c-2.036-2.127-4.656-3.209-7.503-3.642c-10.335-1.572-18.58,5.376-19.614,16.461c-1.09,11.678,5.9,20.387,17.113,20.609
	c4.896,0.311,9.22-1.777,12.045-6.472C261.166,236.621,263.641,234.449,261.013,233.484z M155.43,240.169
	c-0.339-7.482-0.088-14.99-0.088-22.487c0-10.135,0.001-9.99-10.3-9.95c-2.939,0.011-4.1,1.126-4.868,3.674
	c-1.088,3.608-2.456,7.13-4.209,12.124c-1.06-3.13-1.631-4.845-2.22-6.554c-3.333-9.671-3.332-9.579-13.829-9.216
	c-2.565,0.089-3.498,0.766-3.464,3.418c0.126,9.661,0.26,19.332-0.039,28.985c-0.153,4.944,3.04,3.694,5.615,3.718
	c2.44,0.023,5.55,1.121,5.17-3.549c-0.36-4.421-0.077-8.893-0.077-13.343c2.515,4.521,4.142,9.045,5.734,13.581
	c0.541,1.542,0.67,3.274,2.986,3.371c2.636,0.11,2.674-1.923,3.358-3.552c1.86-4.432,2.707-9.3,5.733-14.292
	c0,5.368,0.285,9.724-0.08,14.024c-0.37,4.362,2.287,3.947,4.988,3.785C152.392,243.751,155.656,245.148,155.43,240.169z
	 M172.109,251.188c-10.183,0.017-17.005,7.454-17.039,18.575c-0.034,11.406,6.857,18.842,17.344,18.712
	c10.232-0.126,16.775-7.466,16.734-18.771C189.107,258.523,182.343,251.171,172.109,251.188z M177.818,274.287
	c-0.716,2.857-2.316,5.152-5.809,5.09c-3.25-0.058-4.649-2.228-5.434-4.9c-0.459-1.561-0.515-3.241-0.593-3.776
	c0.029-2.939,0.147-4.727,0.914-6.448c1.019-2.285,2.51-3.942,5.147-3.993c2.895-0.056,4.545,1.757,5.472,4.248
	C178.707,267.709,178.626,271.065,177.818,274.287z M227.481,240.74c-0.064-9.975-0.087-19.952,0.028-29.927
	c0.029-2.507-1.004-2.957-3.237-3.042c-7.316-0.279-7.312-0.37-7.314,6.833c0,1.164-0.095,2.337,0.018,3.49
	c0.224,2.277-0.93,2.702-2.955,2.82c-6.602,0.387-6.637,0.434-6.641-6.174c-0.004-7.249-0.002-7.1-7.224-6.992
	c-2.697,0.04-3.392,0.915-3.296,3.453c0.175,4.649,0.05,9.309,0.05,13.964c0,5.154-0.027,10.309,0.018,15.462
	c0.012,1.387-0.426,2.871,1.881,3.333c6.729,1.346,8.569,0.013,8.571-6.712c0.001-1.663,0.042-3.326-0.003-4.988
	c-0.044-1.615,0.624-2.263,2.286-2.526c6.191-0.98,7.292-0.154,7.294,5.933c0.001,1.663,0.165,3.345-0.032,4.984
	c-0.464,3.862,2.198,3.558,4.437,3.186C223.627,243.463,227.514,245.959,227.481,240.74z M214.817,264.868
	c3.007-3.885,5.579-8.108,8.311-12.151c-11.488-4.587-14.911,3.674-18.508,11.652c-0.364-0.262-0.728-0.525-1.093-0.787
	c0-2.784-0.148-5.577,0.032-8.35c0.338-5.219-3.542-3.086-5.841-3.314c-2.261-0.224-4.951-1.021-4.825,3.286
	c0.288,9.8,0.27,19.619,0.007,29.421c-0.114,4.24,2.523,3.533,4.841,3.321c2.35-0.214,6.132,1.786,5.837-3.396
	c-0.163-2.851-0.702-5.963,2.262-8.409c1.992,3.748,3.186,8.197,6.057,10.794c3.019,2.731,7.735,0.701,12.541,1.093
	c-3.558-5.757-6.454-10.948-9.867-15.774C212.575,269.43,212.791,267.486,214.817,264.868z M191.343,211.274
	c-0.003-1.113,0.411-2.418-0.729-3.245c-2.292-1.662-10.278,0.43-11.766,3.051c-2.179,3.838-4.343,7.685-6.514,11.527
	c-0.325-0.139-0.649-0.279-0.974-0.418c0-2.481,0-4.962,0-7.443c-0.001-7.569,0.006-7.456-7.737-6.99
	c-2.251,0.136-2.776,0.905-2.76,2.971c0.077,9.991,0.026,19.982,0.047,29.974c0.002,1.112-0.324,2.38,0.984,3.107
	c2.679,1.491,9.223-0.417,10.796-3.186c2.454-4.321,4.875-8.66,7.31-12.991c0.899,4.487,1.186,8.5,0.822,12.453
	c-0.397,4.323,2.216,4.034,4.957,3.814c2.49-0.2,5.821,1.395,5.666-3.652C191.15,230.597,191.371,220.932,191.343,211.274z"/>
</svg>
