<svg class="icon-special" xmlns="http://www.w3.org/2000/svg" height="30" viewBox="0 0 289.9 117.7" width="30"><path d="M278.6,49c-4.7-27.7-28.9-49-58-49c-22.4,0-41.9,12.6-51.9,31.1c-6.4-5.5-14.7-8.9-23.8-8.9s-17.4,3.4-23.8,8.9  C111.2,12.6,91.7,0,69.3,0C40.2,0,16,21.2,11.3,49H0v19.8h11.3c4.7,27.7,28.9,48.9,58,48.9c32.4,0,58.8-26.4,58.8-58.8  c0-9.3,7.6-16.9,16.9-16.9c9.3,0,16.9,7.6,16.9,16.9c0,32.4,26.4,58.8,58.8,58.8c29.1,0,53.3-21.2,58-48.9h11.3V49H278.6z   M69.2,97.9c-21.5,0-39.1-17.5-39.1-39.1c0-21.5,17.5-39.1,39.1-39.1s39.1,17.5,39.1,39.1C108.3,80.4,90.8,97.9,69.2,97.9z   M220.6,97.9c-21.5,0-39.1-17.5-39.1-39.1c0-21.5,17.5-39.1,39.1-39.1c21.5,0,39.1,17.5,39.1,39.1C259.7,80.4,242.2,97.9,220.6,97.9  z"></path></svg>