<svg class="svg-ico-docs--png" xmlns="http://www.w3.org/2000/svg" width="32" height="32" viewBox="0 0 512 512"><path class="st-bg" d="M128 0c-17.6 0-32 14.4-32 32v448c0 17.6 14.4 32 32 32h320c17.6 0 32-14.4 32-32V128L352 0H128z"></path><path class="st-corner" d="M384 128h96L352 0v96C352 113.6 366.4 128 384 128z"></path><polygon class="st-shadow" points="480 224 384 128 480 128 "></polygon><path d="M416 416c0 8.8-7.2 16-16 16H48c-8.8 0-16-7.2-16-16V256c0-8.8 7.2-16 16-16h352c8.8 0 16 7.2 16 16V416z" fill="#A066AA"></path><path class="st-text" d="M92.8 303.2c0-4.2 3.3-8.8 8.7-8.8h29.6c16.6 0 31.6 11.1 31.6 32.5 0 20.2-15 31.5-31.6 31.5H109.7v16.9c0 5.6-3.6 8.8-8.2 8.8 -4.2 0-8.7-3.2-8.7-8.8C92.8 375.2 92.8 303.2 92.8 303.2zM109.7 310.4v31.9h21.4c8.6 0 15.3-7.6 15.3-15.5 0-9-6.8-16.4-15.3-16.4L109.7 310.4 109.7 310.4z"></path><path class="st-text" d="M179 304.4c0-4.6 1-9.1 7.7-9.1 4.6 0 5.6 1.2 9.1 4.5l42.3 53v-49.6c0-4.2 3.7-8.8 8.1-8.8 4.6 0 9.1 4.6 9.1 8.8v72c0 5.6-3.5 7.8-6.8 8.8 -4.5 0-6.7-1-10.4-4.5l-42.3-53.7v49.4c0 5.6-3.5 8.8-8.1 8.8s-8.7-3.2-8.7-8.8v-70.8H179z"></path><path class="st-text" d="M351.4 374.2c-9.1 7.5-20.2 10.8-31.5 10.8 -26.9 0-45.9-15.4-45.9-45.8 0-25.8 20.1-45.9 47.1-45.9 10.1 0 21.2 3.5 29.2 11.3 7.8 7.7-3.5 19.1-11.1 12.3 -4.7-4.6-11.4-8.1-18-8.1 -15.5 0-30.4 12.4-30.4 30.4 0 18.9 12.5 30.4 29.3 30.4 7.8 0 14.4-2.3 19.2-5.8V348.1h-19.2c-11.4 0-10.2-15.6 0-15.6h25.6c4.7 0 9.1 3.6 9.1 7.6v27.2C354.6 369.6 353.6 371.7 351.4 374.2z"></path><path class="st-shadow" d="M400 432H96v16h304c8.8 0 16-7.2 16-16v-16C416 424.8 408.8 432 400 432z"></path></svg>