<svg class="svg-ico-docs--xls" xmlns="http://www.w3.org/2000/svg" width="32" height="32" viewBox="0 0 512 512"><path class="st-bg" d="M128 0c-17.6 0-32 14.4-32 32v448c0 17.6 14.4 32 32 32h320c17.6 0 32-14.4 32-32V128L352 0H128z"></path><path class="st-corner" d="M384 128h96L352 0v96C352 113.6 366.4 128 384 128z"></path><polygon class="st-shadow" points="480 224 384 128 480 128 "></polygon><path d="M416 416c0 8.8-7.2 16-16 16H48c-8.8 0-16-7.2-16-16V256c0-8.8 7.2-16 16-16h352c8.8 0 16 7.2 16 16V416z" fill="#84BD5A"></path><path class="st-text" d="M144.3 326.2l22.3-27.9c6.7-8.7 19.6 2.4 12.3 10.7 -7.7 9.1-15.7 18.9-23.4 29l26.1 32.5c7 9.6-7 18.8-13.9 9.3l-23.6-30.2 -23.2 30.8c-6.5 9.3-21-1.2-13.7-9.9l25.7-32.6c-8.1-10.1-15.9-20-23.7-29 -8-9.6 6.9-19.4 12.8-10.5L144.3 326.2z"></path><path class="st-text" d="M197.4 303.2c0-4.2 3.6-7.8 8.1-7.8 4.1 0 7.6 3.6 7.6 7.8v64.1h34.8c12.5 0 12.8 16.8 0 16.8H205.4c-4.5 0-8.1-3.2-8.1-7.8v-73.1H197.4z"></path><path class="st-text" d="M272 314.7c2.9-24.8 40.4-29.3 58.1-15.7 8.7 7-0.5 18.2-8.2 12.5 -9.5-6-31-8.8-33.6 4.5 -3.5 21 52.2 9 51.3 43 -0.9 32.5-48 33.2-65.6 18.7 -4.2-3.5-4.1-9.1-1.8-12.5 3.3-3.3 7-4.5 11.4-0.9 10.5 7.2 37.5 12.5 39.4-5.6C321.3 339.6 268.1 351 272 314.7z"></path><path class="st-shadow" d="M400 432H96v16h304c8.8 0 16-7.2 16-16v-16C416 424.8 408.8 432 400 432z"></path></svg>