<svg class="svg-ico-odnoklassniki" xmlns="http://www.w3.org/2000/svg" width="32" height="32" viewBox="0 0 87.1 146.5"><path fill="#f2822e" d="M44 68.4c19.1 0 34.2-15.2 34.2-34.2C78.1 15.2 63 0 44 0 24.9 0 9.8 15.2 9.8 34.2 9.8 53.2 24.9 68.4 44 68.4zM44 17.1c9.3 0 17.1 7.8 17.1 17.1 0 9.3-7.8 17.1-17.1 17.1 -9.3 0-17.1-7.8-17.1-17.1C26.9 24.9 34.7 17.1 44 17.1zM78.2 73.3c-4.9 0-14.7 9.8-34.2 9.8 -19.5 0-29.3-9.8-34.2-9.8C4.4 73.3 0 77.7 0 83c0 4.9 2.9 7.3 4.9 8.3 5.9 3.4 24.4 11.2 24.4 11.2L8.3 128.9c0 0-3.9 4.4-3.9 7.8 0 5.4 4.4 9.8 9.8 9.8 4.9 0 7.3-3.4 7.3-3.4s22-26.4 22-25.9l22 25.9c0 0 2.5 3.4 7.3 3.4 5.4 0 9.8-4.4 9.8-9.8 0-2.9-3.9-7.8-3.9-7.8l-21-26.4c0 0 18.6-7.8 24.4-11.2 2-1.5 4.9-3.4 4.9-8.3C87.9 77.7 83.5 73.3 78.2 73.3z"></path></svg>