<svg class="svg-ico-docs--zip" xmlns="http://www.w3.org/2000/svg" width="32" height="32" viewBox="0 0 413.9 514.9"><path d="M287.7 141.4H126.2v10.1h161.5V141.4zM126.2 201.9h161.5v-10.1H126.2V201.9zM0 292.8v141.4h413.9V292.8H0zM393.7 414H20.2V313h373.5V414zM40.4 126.2l106.1-106h227.1v252.4h20.2V0H138L20.2 117.9v154.7H40.4V126.2zM373.5 494.7H40.4v-40.4H20.2v60.6h373.6v-60.6h-20.2V494.7zM175.5 387h-36.9l35.9-49.2v-10.3h-48.1v10.5h34.3l-35.8 49.1v10.4h50.6V387zM250.5 370.5h18.3c12.3 0 19.7-8.3 19.7-21.5s-7.4-21.5-19.7-21.5h-30.3v70h12V370.5zM250.5 338h16.2c5.5 0 9.6 3.9 9.6 11s-4.1 11-9.6 11h-16.2V338zM210.5 327.5h-12v70h12V327.5z"></path></svg>