<svg class="svg-ico-docs--txt" xmlns="http://www.w3.org/2000/svg" width="32" height="32" viewBox="0 0 413.9 514.9"><path d="M287.7 141.4H126.2v10.1h161.5V141.4zM126.2 201.9h161.5v-10.1H126.2V201.9zM0 292.8v141.4h413.9V292.8H0zM393.7 414H20.2V313h373.5V414zM40.4 126.2l106.1-106h227.1v252.4h20.2V0H138L20.2 117.9v154.7H40.4V126.2zM373.5 494.7H40.4v-40.4H20.2v60.6h373.6v-60.6h-20.2V494.7zM130.3 397.5h12v-59.5h20.3v-10.5h-52.6v10.5h20.3V397.5zM271.7 397.5h12v-59.5h20.3v-10.5h-52.6v10.5h20.3V397.5zM206.7 370.9l17.5 26.6h12.2v-4l-22.1-32.3 20.4-29.7v-4h-11.5l-16.2 24.4 -15.5-24.4h-12.2v4l20.2 29.8 -21.9 32.2v4h11.5L206.7 370.9z"></path></svg>