<svg class="svg-ico-docs--jpg" xmlns="http://www.w3.org/2000/svg" width="32" height="32" viewBox="0 0 413.9 514.9"><path d="M287.7 141.4H126.2v10.1h161.5V141.4zM126.2 201.9h161.5v-10.1H126.2V201.9zM0 292.8v141.4h413.9V292.8H0zM393.7 414H20.2V313h373.5V414zM40.4 126.2l106.1-106h227.1v252.4h20.2V0H138L20.2 117.9v154.7H40.4V126.2zM373.5 494.7H40.4v-40.4H20.2v60.6h373.6v-60.6h-20.2V494.7zM127.7 399c7.1 0 12.9-1.8 17.3-5.4 4.5-3.7 6.7-9.3 6.7-16.8v-49.3h-12v48.9c0 7.9-5.1 11.6-12 11.6 -8 0-12-3.7-12-11.2v-3h-12v3C103.7 392.3 112.9 399 127.7 399zM276.3 399c7.5 0 13.4-2.7 17.8-8.1l3.6 6.6h6.5v-37h-25.8v10h13.8v9c-2.9 5.3-8.7 8.5-15.2 8.5 -9.3 0-14.8-5.2-14.8-13.9v-23.7c0-8.3 5.9-13.4 15.2-13.4 9.2 0 14.8 5.1 14.8 12.8v0.4h12v-0.4c0-7.7-2.5-13.6-7.6-17.7 -5.1-4.1-11.3-6.1-18.7-6.1 -17.5 0-27.7 9.3-27.7 25.2v22.9C250.2 389.8 260 399 276.3 399zM190.7 370.5h18.3c12.3 0 19.7-8.3 19.7-21.5s-7.4-21.5-19.7-21.5h-30.3v70h12V370.5zM190.7 338h16.2c5.5 0 9.6 3.9 9.6 11s-4.1 11-9.6 11h-16.2V338z"></path></svg>