<svg class="svg-ico-arr-sm-l" xmlns="http://www.w3.org/2000/svg" width="12" height="12" viewBox="0 0 62 45.2"><path d="M61.6 20.7c-0.8-2.3-3-3.7-5.6-3.7 -11.3 0-22.6 0-33.9 0h-1.1c0.3-0.3 0.5-0.5 0.7-0.6 2.4-2.1 4.8-4.2 7.1-6.3 2.9-2.6 2.9-6.6 0-8.8C28 0.7 27 0.4 26.1 0h-1.8c-1.8 0.4-3.2 1.6-4.6 2.8C14.1 7.8 8.4 12.8 2.7 17.7 1.4 18.8 0.4 20.1 0 21.8v1.6c0.4 1.9 1.7 3.2 3.1 4.5 5.7 4.9 11.3 9.9 17 14.9 1.2 1.1 2.5 2.1 4.2 2.5h1.8c0.7-0.3 1.5-0.5 2.2-0.9 3.1-1.8 3.7-6.1 1.1-8.6 -2.5-2.4-5.1-4.5-7.6-6.8 -0.2-0.2-0.4-0.4-0.7-0.7h1c11.2 0 22.4 0 33.6 0 3.4 0 5.3-1.4 6.3-4.7 0 0 0.1-0.1 0.1-0.1v-1.6C61.9 21.4 61.8 21.1 61.6 20.7z"></path></svg>