<svg class="svg-ico-docs--jpg" xmlns="http://www.w3.org/2000/svg" width="32" height="32" viewBox="0 0 512 512"><path class="st-bg" d="M128 0c-17.6 0-32 14.4-32 32v448c0 17.6 14.4 32 32 32h320c17.6 0 32-14.4 32-32V128L352 0H128z"></path><path class="st-corner" d="M384 128h96L352 0v96C352 113.6 366.4 128 384 128z"></path><polygon class="st-shadow" points="480 224 384 128 480 128 "></polygon><path d="M416 416c0 8.8-7.2 16-16 16H48c-8.8 0-16-7.2-16-16V256c0-8.8 7.2-16 16-16h352c8.8 0 16 7.2 16 16V416z" fill="#50BEE8"></path><path class="st-text" d="M142 303.2c0-10.8 16.9-10.8 16.9 0v50.5c0 20.1-9.6 32.3-31.7 32.3 -10.9 0-20-3-27.9-13.2 -6.5-7.8 5.8-19.1 12.4-10.9 5.4 6.7 11.1 8.2 16.8 7.9 7.2-0.3 13.4-3.5 13.6-16.1v-50.5H142z"></path><path class="st-text" d="M181.3 303.2c0-4.2 3.3-8.8 8.7-8.8H219.6c16.6 0 31.6 11.1 31.6 32.5 0 20.2-15 31.5-31.6 31.5h-21.4v16.9c0 5.6-3.6 8.8-8.2 8.8 -4.2 0-8.7-3.2-8.7-8.8L181.3 303.2 181.3 303.2zM198.2 310.4v31.9h21.4c8.6 0 15.4-7.6 15.4-15.5 0-8.9-6.8-16.4-15.4-16.4H198.2z"></path><path class="st-text" d="M342.6 374.2c-9.1 7.6-20.2 10.8-31.5 10.8 -26.9 0-45.9-15.3-45.9-45.8 0-25.8 20.1-45.9 47.1-45.9 10.1 0 21.2 3.4 29.2 11.2 7.8 7.7-3.5 19.1-11.1 12.3 -4.7-4.6-11.4-8.1-18-8.1 -15.5 0-30.4 12.4-30.4 30.4 0 18.9 12.5 30.5 29.3 30.5 7.8 0 14.4-2.3 19.2-5.8V348.1h-19.2c-11.4 0-10.2-15.6 0-15.6h25.6c4.7 0 9.1 3.6 9.1 7.6v27.2C345.8 369.6 344.8 371.7 342.6 374.2z"></path><path class="st-shadow" d="M400 432H96v16h304c8.8 0 16-7.2 16-16v-16C416 424.8 408.8 432 400 432z"></path></svg>