<svg class="svg-ico-print" xmlns="http://www.w3.org/2000/svg" width="24" height="24" viewBox="0 0 295.1 280.4"><path d="M218.4 236.1H76.7c-1.5 0-3 1.5-3 3v38.4c0 1.5 1.5 3 3 3h141.7c1.5 0 3-1.5 3-3V239C221.3 237.6 219.9 236.1 218.4 236.1zM280.4 88.5h-44.3V14.8c0-8.9-5.9-14.8-14.8-14.8H73.8C64.9 0 59 5.9 59 14.8v73.8H14.8C5.9 88.5 0 94.4 0 103.3v162.3c0 8.9 5.9 14.8 14.8 14.8h29.5v-73.8c0-8.9 5.9-14.8 14.8-14.8h177.1c8.9 0 14.8 5.9 14.8 14.8v73.8h29.5c8.9 0 14.8-5.9 14.8-14.8V103.3C295.1 94.4 289.2 88.5 280.4 88.5zM191.8 162.3c-8.9 0-14.8-5.9-14.8-14.8s5.9-14.8 14.8-14.8 14.8 5.9 14.8 14.8S200.7 162.3 191.8 162.3zM206.6 88.5h-118v-59h118V88.5zM243.5 162.3c-11.8 0-22.1-10.3-22.1-22.1s10.3-22.1 22.1-22.1 22.1 10.3 22.1 22.1S255.3 162.3 243.5 162.3z"></path></svg>