<svg class="svg-ico-send" xmlns="http://www.w3.org/2000/svg" width="40" height="16" viewBox="0 0 91.8 37"><path d="M27.5 16H12c-1.1 0-2 0.9-2 2s0.9 2 2 2h15.5c1.1 0 2-0.9 2-2S28.6 16 27.5 16zM27.5 6H2C0.9 6 0 6.9 0 8s0.9 2 2 2h25.5c1.1 0 2-0.9 2-2S28.6 6 27.5 6zM27.5 26H22c-1.1 0-2 0.9-2 2s0.9 2 2 2h5.5c1.1 0 2-0.9 2-2S28.6 26 27.5 26zM44.8 10.1l10.6 8.1-10.5 7.7c-0.8 0.6-0.9 1.8-0.4 2.6 0.6 0.9 1.8 1.2 2.8 0.6l11.5-8.3 2.7 2.1c0.7 0.6 1.7 0.6 2.5 0l3.2-2.5 10.8 8.4c0.9 0.7 2.1 0.5 2.8-0.4 0.7-0.9 0.5-2.1-0.4-2.8l-10-7.7 10-7.7c0.9-0.7 1-1.9 0.4-2.8-0.7-0.9-1.9-1-2.8-0.4L62.5 18.7 47.2 6.9c-0.9-0.7-2.1-0.5-2.8 0.4C43.7 8.1 43.9 9.4 44.8 10.1zM87.8 0h-50c-2.2 0-4 1.8-4 4v29c0 2.2 1.8 4 4 4h50c2.2 0 4-1.8 4-4V4C91.8 1.8 90 0 87.8 0zM87.8 33h-50V4h50V33z"></path></svg>