<svg class="svg-ico-docs--zip" xmlns="http://www.w3.org/2000/svg" width="32" height="32" viewBox="0 0 512 512"><path class="st-bg" d="M128 0c-17.6 0-32 14.4-32 32v448c0 17.6 14.4 32 32 32h320c17.6 0 32-14.4 32-32V128L352 0H128z"></path><path class="st-corner" d="M384 128h96L352 0v96C352 113.6 366.4 128 384 128z"></path><polygon class="st-shadow" points="480 224 384 128 480 128 "></polygon><path d="M416 416c0 8.8-7.2 16-16 16H48c-8.8 0-16-7.2-16-16V256c0-8.8 7.2-16 16-16h352c8.8 0 16 7.2 16 16V416z" fill="#84BD5A"></path><path class="st-text" d="M132.6 384c-8.1 0-11.3-7.8-6.7-13.3l45.6-60.5h-37.8c-11.1 0-10.2-15.7 0-15.7h51.6c9.7 0 12.5 9.2 5.6 16.6l-43.6 56.7h41.6c10.2 0 11.5 16.3-1 16.3h-55.3V384z"></path><path class="st-text" d="M212 303.2c0-10.5 16.9-10.9 16.9 0v73c0 10.6-16.9 10.9-16.9 0V303.2z"></path><path class="st-text" d="M251.6 303.2c0-4.2 3.3-8.8 8.7-8.8h29.6c16.6 0 31.6 11.1 31.6 32.5 0 20.2-15 31.5-31.6 31.5h-21.4v16.9c0 5.6-3.6 8.8-8.2 8.8 -4.2 0-8.7-3.2-8.7-8.8L251.6 303.2 251.6 303.2zM268.5 310.4v31.9h21.4c8.6 0 15.4-7.6 15.4-15.5 0-8.9-6.8-16.4-15.4-16.4H268.5z"></path><path class="st-shadow" d="M400 432H96v16h304c8.8 0 16-7.2 16-16v-16C416 424.8 408.8 432 400 432z"></path></svg>