<svg class="svg-ico-vkontakte" xmlns="http://www.w3.org/2000/svg" width="32" height="32" viewBox="0 0 107.585 61.139"><path fill="#4b73a4" d="M104.8 51.2c-2.6-2.6-13.2-13.7-13.2-13.7 -1.6-2.1-2.1-4.7-0.5-6.8 3.2-4.2 9-11.6 11.1-14.8 3.2-4.2 9-13.2 1.1-13.2H85.9c-1.6 0-2.6 1.1-3.7 2.1 0 0-6.8 12.6-9 16.8 -5.8 11.6-10 7.9-10 2.6V5.9c0-3.2-2.6-5.8-5.8-5.8H44.3c-3.7-0.5-6.8 1.6-9.5 4.2 0 0 6.8-1.1 6.8 7.9v13.7c0 2.1-1.6 3.7-3.7 3.7 -1.1 0-2.1-0.5-3.2-1.1 -5.3-7.4-10-15.3-13.2-23.7 -0.5-1.1-2.1-2.1-3.2-2.1H2.6C1.1 2.7 0 3.7 0 5.3c0 0.5 0 0.5 0 1.1 4.7 13.2 25.3 54.3 49 54.3h10c2.1 0 3.7-1.6 3.7-3.7v-5.8c0-2.1 1.6-3.7 3.7-3.7 1.1 0 2.1 0.5 2.6 1.1L80.6 59.6c1.1 1.1 2.6 1.6 3.7 1.6h15.8C109.1 60.7 109.1 55.4 104.8 51.2z"></path></svg>