<svg class="svg-ico-docs--doc" xmlns="http://www.w3.org/2000/svg" width="32" height="32" viewBox="0 0 413.9 514.9"><path d="M287.7 141.4H126.2v10.1h161.5V141.4zM126.2 201.9h161.5v-10.1H126.2V201.9zM0 292.8v141.4h413.9V292.8H0zM393.7 414H20.2V313h373.5V414zM40.4 126.2l106.1-106h227.1v252.4h20.2V0H138L20.2 117.9v154.7H40.4V126.2zM373.5 494.7H40.4v-40.4H20.2v60.6h373.6v-60.6h-20.2V494.7zM208.2 399c16.9 0 27.5-9.5 27.5-25.2v-22.6c0-15.7-10.6-25.2-27.5-25.2 -16.9 0-27.5 9.5-27.5 25.2v22.6C180.7 389.5 191.3 399 208.2 399zM192.7 350.6c0-7.9 5.5-13.6 15.5-13.6 10 0 15.5 5.7 15.5 13.6v23.8c0 7.9-5.5 13.6-15.5 13.6 -10 0-15.5-5.7-15.5-13.6V350.6zM156.7 373.3v-21.6c0-15.3-10.6-24.2-27.5-24.2h-25v70h25C146.1 397.5 156.7 388.6 156.7 373.3zM116.2 338h13c9.7 0 15.5 5.5 15.5 13.4v22.2c0 7.9-5.8 13.4-15.5 13.4h-13V338zM286.9 399c7.4 0 13.5-2 18.4-6.1 4.9-4.1 7.4-10.1 7.4-18.1v-1h-12v1c0 4.3-1.4 7.6-4.3 9.9 -2.9 2.2-6.1 3.3-9.6 3.3 -10.1 0-15.1-4.9-15.1-13.4v-24.2c0-8.5 5-13.4 15.1-13.4 3.5 0 6.7 1.1 9.6 3.4 2.9 2.2 4.3 5.5 4.3 9.8v1h12v-1c0-8-2.5-14-7.4-18.1 -4.9-4.1-11-6.1-18.4-6.1 -17.3 0-27.2 9.2-27.2 25.2v22.6C259.7 389.8 269.6 399 286.9 399z"></path></svg>