<svg class="svg-ico-twitter" xmlns="http://www.w3.org/2000/svg" width="32" height="32" viewBox="-368.9 301 240.3 195.3"><path fill="#1da0f2" d="M-128.6 324.1c-8.8 3.9-18.3 6.6-28.3 7.8 10.2-6.1 18-15.8 21.7-27.3 -9.5 5.7-20.1 9.8-31.3 12 -9-9.6-21.8-15.6-36-15.6 -27.2 0-49.3 22.1-49.3 49.3 0 3.9 0.4 7.6 1.3 11.2 -41-2.1-77.3-21.7-101.6-51.5 -4.2 7.3-6.7 15.7-6.7 24.8 0 17.1 8.7 32.2 21.9 41 -8.1-0.3-15.7-2.5-22.3-6.2 0 0.2 0 0.4 0 0.6 0 23.9 17 43.8 39.6 48.3 -4.1 1.1-8.5 1.7-13 1.7 -3.2 0-6.3-0.3-9.3-0.9 6.3 19.6 24.5 33.8 46.1 34.2 -16.9 13.2-38.1 21.1-61.2 21.1 -4 0-7.9-0.2-11.8-0.7 21.8 14 47.7 22.2 75.6 22.2 90.7 0 140.3-75.1 140.3-140.3 0-2.1 0-4.3-0.1-6.4C-143.6 342.7-135.2 334-128.6 324.1z"></path></svg>