<svg class="svg-ico-docs--png" xmlns="http://www.w3.org/2000/svg" width="32" height="32" viewBox="0 0 413.9 514.9"><path d="M287.7 141.4H126.2v10.1h161.5V141.4zM126.2 201.9h161.5v-10.1H126.2V201.9zM0 292.8v141.4h413.9V292.8H0zM393.7 414H20.2V313h373.5V414zM40.4 126.2l106.1-106h227.1v252.4h20.2V0H138L20.2 117.9v154.7H40.4V126.2zM373.5 494.7H40.4v-40.4H20.2v60.6h373.6v-60.6h-20.2V494.7zM116.2 370.5h18.3c12.3 0 19.7-8.3 19.7-21.5s-7.4-21.5-19.7-21.5h-30.3v70h12V370.5zM116.2 338h16.2c5.5 0 9.6 3.9 9.6 11s-4.1 11-9.6 11h-16.2V338zM189.7 349.8l30 47.7h11v-70h-12v47.7l-30-47.7h-11v70h12V349.8zM282.8 399c7.5 0 13.4-2.7 17.8-8.1l3.6 6.6h6.5v-37h-25.8v10h13.8v9c-2.9 5.3-8.7 8.5-15.2 8.5 -9.3 0-14.8-5.2-14.8-13.9v-23.7c0-8.3 5.9-13.4 15.2-13.4 9.2 0 14.8 5.1 14.8 12.8v0.4h12v-0.4c0-7.7-2.5-13.6-7.6-17.7 -5.1-4.1-11.3-6.1-18.7-6.1 -17.5 0-27.7 9.3-27.7 25.2v22.9C256.7 389.8 266.5 399 282.8 399z"></path></svg>