<svg class="svg-ico-docs--rar" xmlns="http://www.w3.org/2000/svg" width="32" height="32" viewBox="0 0 413.9 514.9"><path d="M287.7 141.4H126.2v10.1h161.5V141.4zM126.2 201.9h161.5v-10.1H126.2V201.9zM0 292.8v141.4h413.9V292.8H0zM393.7 414H20.2V313h373.5V414zM40.4 126.2l106.1-106h227.1v252.4h20.2V0H138L20.2 117.9v154.7H40.4V126.2zM373.5 494.7H40.4v-40.4H20.2v60.6h373.6v-60.6h-20.2V494.7zM193.5 380.2h26.4l6.2 17.3h11.8v-4l-25-66h-11.8l-25 66v4h11.1L193.5 380.2zM206.8 343.5l9.5 26.7h-19.2L206.8 343.5zM270.9 370.6h13.8l14.4 26.9h11.8v-4l-13.1-24.3c8.1-3.5 12.3-10.9 12.3-20.2 0-13.6-7.5-21.5-21.1-21.5h-30.1v70h12V370.6zM270.9 338h15.9c7.4 0 11.1 3.7 11.1 11.2 0 7.5-3.7 11.2-11.1 11.2h-15.9V338zM119.1 370.6h13.8l14.4 26.9h11.8v-4l-13.1-24.3c8.1-3.5 12.3-10.9 12.3-20.2 0-13.6-7.5-21.5-21.1-21.5h-30.1v70h12V370.6zM119.1 338h15.9c7.4 0 11.1 3.7 11.1 11.2 0 7.5-3.7 11.2-11.1 11.2h-15.9V338z"></path></svg>